<mxfile host="Electron" agent="Mozilla/5.0 (Windows NT 10.0; Win64; x64) AppleWebKit/537.36 (KHTML, like Gecko) draw.io/24.7.17 Chrome/128.0.6613.36 Electron/32.0.1 Safari/537.36" version="24.7.17">
  <diagram name="Pagina-1" id="yhUcPpMiCLV7o69w87VS">
    <mxGraphModel dx="568" dy="329" grid="1" gridSize="10" guides="1" tooltips="1" connect="1" arrows="1" fold="1" page="1" pageScale="1" pageWidth="827" pageHeight="1169" math="0" shadow="0">
      <root>
        <mxCell id="0" />
        <mxCell id="1" parent="0" />
        <mxCell id="A-M0qx6TIgdJOTIf7Dzo-1" value="+" style="ellipse;whiteSpace=wrap;html=1;aspect=fixed;fillColor=#f8cecc;strokeColor=#b85450;" vertex="1" parent="1">
          <mxGeometry x="370" y="370" width="20" height="20" as="geometry" />
        </mxCell>
        <mxCell id="A-M0qx6TIgdJOTIf7Dzo-2" value="" style="endArrow=classic;html=1;rounded=0;" edge="1" parent="1">
          <mxGeometry width="50" height="50" relative="1" as="geometry">
            <mxPoint x="380" y="360" as="sourcePoint" />
            <mxPoint x="379.93" y="310" as="targetPoint" />
          </mxGeometry>
        </mxCell>
        <mxCell id="A-M0qx6TIgdJOTIf7Dzo-4" value="" style="endArrow=classic;html=1;rounded=0;" edge="1" parent="1">
          <mxGeometry width="50" height="50" relative="1" as="geometry">
            <mxPoint x="379.95" y="300" as="sourcePoint" />
            <mxPoint x="380" y="270" as="targetPoint" />
          </mxGeometry>
        </mxCell>
        <mxCell id="A-M0qx6TIgdJOTIf7Dzo-5" value="" style="endArrow=classic;html=1;rounded=0;" edge="1" parent="1">
          <mxGeometry width="50" height="50" relative="1" as="geometry">
            <mxPoint x="379.83" y="260" as="sourcePoint" />
            <mxPoint x="380" y="240" as="targetPoint" />
          </mxGeometry>
        </mxCell>
        <mxCell id="A-M0qx6TIgdJOTIf7Dzo-15" value="" style="group;rotation=-180;" vertex="1" connectable="0" parent="1">
          <mxGeometry x="380" y="400" width="0.17000000000001592" height="120" as="geometry" />
        </mxCell>
        <mxCell id="A-M0qx6TIgdJOTIf7Dzo-12" value="" style="endArrow=classic;html=1;rounded=0;" edge="1" parent="A-M0qx6TIgdJOTIf7Dzo-15">
          <mxGeometry width="50" height="50" relative="1" as="geometry">
            <mxPoint as="sourcePoint" />
            <mxPoint y="50" as="targetPoint" />
          </mxGeometry>
        </mxCell>
        <mxCell id="A-M0qx6TIgdJOTIf7Dzo-13" value="" style="endArrow=classic;html=1;rounded=0;" edge="1" parent="A-M0qx6TIgdJOTIf7Dzo-15">
          <mxGeometry width="50" height="50" relative="1" as="geometry">
            <mxPoint y="60" as="sourcePoint" />
            <mxPoint y="90" as="targetPoint" />
          </mxGeometry>
        </mxCell>
        <mxCell id="A-M0qx6TIgdJOTIf7Dzo-14" value="" style="endArrow=classic;html=1;rounded=0;" edge="1" parent="A-M0qx6TIgdJOTIf7Dzo-15">
          <mxGeometry width="50" height="50" relative="1" as="geometry">
            <mxPoint y="100" as="sourcePoint" />
            <mxPoint y="120" as="targetPoint" />
          </mxGeometry>
        </mxCell>
        <mxCell id="A-M0qx6TIgdJOTIf7Dzo-17" value="" style="group;rotation=-180;" vertex="1" connectable="0" parent="1">
          <mxGeometry x="240" y="380" width="120" height="100" as="geometry" />
        </mxCell>
        <mxCell id="A-M0qx6TIgdJOTIf7Dzo-18" value="" style="endArrow=classic;html=1;rounded=0;" edge="1" parent="A-M0qx6TIgdJOTIf7Dzo-17">
          <mxGeometry width="50" height="50" relative="1" as="geometry">
            <mxPoint x="120" as="sourcePoint" />
            <mxPoint x="70" as="targetPoint" />
          </mxGeometry>
        </mxCell>
        <mxCell id="A-M0qx6TIgdJOTIf7Dzo-19" value="" style="endArrow=classic;html=1;rounded=0;" edge="1" parent="A-M0qx6TIgdJOTIf7Dzo-17">
          <mxGeometry width="50" height="50" relative="1" as="geometry">
            <mxPoint x="60" as="sourcePoint" />
            <mxPoint x="30" as="targetPoint" />
          </mxGeometry>
        </mxCell>
        <mxCell id="A-M0qx6TIgdJOTIf7Dzo-20" value="" style="endArrow=classic;html=1;rounded=0;" edge="1" parent="A-M0qx6TIgdJOTIf7Dzo-17">
          <mxGeometry width="50" height="50" relative="1" as="geometry">
            <mxPoint x="20" as="sourcePoint" />
            <mxPoint as="targetPoint" />
          </mxGeometry>
        </mxCell>
        <mxCell id="A-M0qx6TIgdJOTIf7Dzo-21" value="" style="endArrow=classic;html=1;rounded=0;" edge="1" parent="A-M0qx6TIgdJOTIf7Dzo-17">
          <mxGeometry width="50" height="50" relative="1" as="geometry">
            <mxPoint x="120" y="20" as="sourcePoint" />
            <mxPoint x="90" y="50" as="targetPoint" />
          </mxGeometry>
        </mxCell>
        <mxCell id="A-M0qx6TIgdJOTIf7Dzo-22" value="" style="endArrow=classic;html=1;rounded=0;" edge="1" parent="A-M0qx6TIgdJOTIf7Dzo-17">
          <mxGeometry width="50" height="50" relative="1" as="geometry">
            <mxPoint x="80" y="60" as="sourcePoint" />
            <mxPoint x="60" y="80" as="targetPoint" />
          </mxGeometry>
        </mxCell>
        <mxCell id="A-M0qx6TIgdJOTIf7Dzo-23" value="" style="endArrow=classic;html=1;rounded=0;" edge="1" parent="A-M0qx6TIgdJOTIf7Dzo-17">
          <mxGeometry width="50" height="50" relative="1" as="geometry">
            <mxPoint x="50" y="90" as="sourcePoint" />
            <mxPoint x="40" y="100" as="targetPoint" />
          </mxGeometry>
        </mxCell>
        <mxCell id="A-M0qx6TIgdJOTIf7Dzo-6" value="" style="endArrow=classic;html=1;rounded=0;" edge="1" parent="1">
          <mxGeometry width="50" height="50" relative="1" as="geometry">
            <mxPoint x="400.07" y="380" as="sourcePoint" />
            <mxPoint x="450" y="380" as="targetPoint" />
          </mxGeometry>
        </mxCell>
        <mxCell id="A-M0qx6TIgdJOTIf7Dzo-7" value="" style="endArrow=classic;html=1;rounded=0;" edge="1" parent="1">
          <mxGeometry width="50" height="50" relative="1" as="geometry">
            <mxPoint x="460" y="379.83" as="sourcePoint" />
            <mxPoint x="490" y="380" as="targetPoint" />
          </mxGeometry>
        </mxCell>
        <mxCell id="A-M0qx6TIgdJOTIf7Dzo-8" value="" style="endArrow=classic;html=1;rounded=0;" edge="1" parent="1">
          <mxGeometry width="50" height="50" relative="1" as="geometry">
            <mxPoint x="500" y="379.83" as="sourcePoint" />
            <mxPoint x="520" y="380" as="targetPoint" />
          </mxGeometry>
        </mxCell>
        <mxCell id="A-M0qx6TIgdJOTIf7Dzo-24" value="" style="group" vertex="1" connectable="0" parent="1">
          <mxGeometry x="400" y="280" width="80" height="80" as="geometry" />
        </mxCell>
        <mxCell id="A-M0qx6TIgdJOTIf7Dzo-9" value="" style="endArrow=classic;html=1;rounded=0;" edge="1" parent="A-M0qx6TIgdJOTIf7Dzo-24">
          <mxGeometry width="50" height="50" relative="1" as="geometry">
            <mxPoint y="80" as="sourcePoint" />
            <mxPoint x="30" y="50" as="targetPoint" />
          </mxGeometry>
        </mxCell>
        <mxCell id="A-M0qx6TIgdJOTIf7Dzo-10" value="" style="endArrow=classic;html=1;rounded=0;" edge="1" parent="A-M0qx6TIgdJOTIf7Dzo-24">
          <mxGeometry width="50" height="50" relative="1" as="geometry">
            <mxPoint x="40" y="40" as="sourcePoint" />
            <mxPoint x="60" y="20" as="targetPoint" />
          </mxGeometry>
        </mxCell>
        <mxCell id="A-M0qx6TIgdJOTIf7Dzo-11" value="" style="endArrow=classic;html=1;rounded=0;" edge="1" parent="A-M0qx6TIgdJOTIf7Dzo-24">
          <mxGeometry width="50" height="50" relative="1" as="geometry">
            <mxPoint x="70" y="10" as="sourcePoint" />
            <mxPoint x="80" as="targetPoint" />
          </mxGeometry>
        </mxCell>
        <mxCell id="A-M0qx6TIgdJOTIf7Dzo-25" value="" style="group;rotation=90;" vertex="1" connectable="0" parent="1">
          <mxGeometry x="400" y="400" width="80" height="80" as="geometry" />
        </mxCell>
        <mxCell id="A-M0qx6TIgdJOTIf7Dzo-26" value="" style="endArrow=classic;html=1;rounded=0;" edge="1" parent="A-M0qx6TIgdJOTIf7Dzo-25">
          <mxGeometry width="50" height="50" relative="1" as="geometry">
            <mxPoint as="sourcePoint" />
            <mxPoint x="30" y="30" as="targetPoint" />
          </mxGeometry>
        </mxCell>
        <mxCell id="A-M0qx6TIgdJOTIf7Dzo-27" value="" style="endArrow=classic;html=1;rounded=0;" edge="1" parent="A-M0qx6TIgdJOTIf7Dzo-25">
          <mxGeometry width="50" height="50" relative="1" as="geometry">
            <mxPoint x="40" y="40" as="sourcePoint" />
            <mxPoint x="60" y="60" as="targetPoint" />
          </mxGeometry>
        </mxCell>
        <mxCell id="A-M0qx6TIgdJOTIf7Dzo-28" value="" style="endArrow=classic;html=1;rounded=0;" edge="1" parent="A-M0qx6TIgdJOTIf7Dzo-25">
          <mxGeometry width="50" height="50" relative="1" as="geometry">
            <mxPoint x="70" y="70" as="sourcePoint" />
            <mxPoint x="80" y="80" as="targetPoint" />
          </mxGeometry>
        </mxCell>
        <mxCell id="A-M0qx6TIgdJOTIf7Dzo-29" value="" style="group;rotation=-90;" vertex="1" connectable="0" parent="1">
          <mxGeometry x="280" y="280" width="80" height="80" as="geometry" />
        </mxCell>
        <mxCell id="A-M0qx6TIgdJOTIf7Dzo-30" value="" style="endArrow=classic;html=1;rounded=0;" edge="1" parent="A-M0qx6TIgdJOTIf7Dzo-29">
          <mxGeometry width="50" height="50" relative="1" as="geometry">
            <mxPoint x="80" y="80" as="sourcePoint" />
            <mxPoint x="50" y="50" as="targetPoint" />
          </mxGeometry>
        </mxCell>
        <mxCell id="A-M0qx6TIgdJOTIf7Dzo-31" value="" style="endArrow=classic;html=1;rounded=0;" edge="1" parent="A-M0qx6TIgdJOTIf7Dzo-29">
          <mxGeometry width="50" height="50" relative="1" as="geometry">
            <mxPoint x="40" y="40" as="sourcePoint" />
            <mxPoint x="20" y="20" as="targetPoint" />
          </mxGeometry>
        </mxCell>
        <mxCell id="A-M0qx6TIgdJOTIf7Dzo-32" value="" style="endArrow=classic;html=1;rounded=0;" edge="1" parent="A-M0qx6TIgdJOTIf7Dzo-29">
          <mxGeometry width="50" height="50" relative="1" as="geometry">
            <mxPoint x="10" y="10" as="sourcePoint" />
            <mxPoint as="targetPoint" />
          </mxGeometry>
        </mxCell>
      </root>
    </mxGraphModel>
  </diagram>
</mxfile>
